<?xml version="1.0" encoding="UTF-8"?>
<!-- Generator: Adobe Illustrator 15.0.2, SVG Export Plug-In . SVG Version: 6.00 Build 0)  -->
<!DOCTYPE svg PUBLIC "-//W3C//DTD SVG 1.1//EN" "http://www.w3.org/Graphics/SVG/1.1/DTD/svg11.dtd">
<svg version="1.1" id="Layer_1" xmlns="http://www.w3.org/2000/svg" xmlns:xlink="http://www.w3.org/1999/xlink" x="0px" y="0px" width="1645px" height="333.663px" viewBox="0 0 1645 333.663" enable-background="new 0 0 1645 333.663" xml:space="preserve">
<path fill="#343434" d="M746.221,165.261l-4.732-4.737l22.789-22.77c9.785-9.777,21.202-17.35,33.933-22.508  c12.288-4.979,25.268-7.504,38.579-7.504c13.311,0,26.29,2.524,38.579,7.504c12.732,5.159,24.148,12.731,33.932,22.508l3.92,3.915  l-4.732,4.738l-3.921-3.916c-9.146-9.141-19.815-16.219-31.713-21.04c-11.486-4.654-23.62-7.014-36.064-7.014  c-12.445,0-24.579,2.36-36.064,7.014c-11.896,4.82-22.566,11.898-31.715,21.039L746.221,165.261z"/>
<path fill="#343434" d="M697.233,233.174l-4.732-4.737l81.267-81.199c34.75-34.722,91.293-34.72,126.041,0l22.983,22.964  l-4.732,4.737l-22.983-22.964c-32.14-32.113-84.435-32.113-116.576,0L697.233,233.174z"/>
<path fill="#343434" d="M951.754,227.571l-66.169-66.114c-13.034-13.022-30.363-20.194-48.797-20.194  c-18.435,0-35.764,7.172-48.795,20.194l-45.723,45.684l-4.732-4.737l45.722-45.684c14.296-14.286,33.306-22.153,53.528-22.153  c20.221,0,39.231,7.868,53.529,22.153l66.169,66.114L951.754,227.571z"/>
<path fill="#343434" d="M743.407,167.442c0,2.442-1.982,4.422-4.426,4.422c-2.444,0-4.427-1.979-4.427-4.422  s1.982-4.422,4.427-4.422C741.425,163.02,743.407,165,743.407,167.442"/>
<path fill="#343434" d="M965.577,232.517c0,2.441-1.982,4.422-4.426,4.422c-2.444,0-4.426-1.98-4.426-4.422  c0-2.443,1.981-4.422,4.426-4.422C963.595,228.094,965.577,230.073,965.577,232.517"/>
<path fill="#343434" d="M961.151,237.69c-2.855,0-5.179-2.321-5.179-5.174c0-2.854,2.323-5.175,5.179-5.175s5.179,2.321,5.179,5.175  C966.33,235.369,964.007,237.69,961.151,237.69z M961.151,228.847c-2.025,0-3.673,1.646-3.673,3.669  c0,2.021,1.647,3.668,3.673,3.668s3.673-1.646,3.673-3.668C964.824,230.493,963.177,228.847,961.151,228.847z"/>
<path fill="#343434" d="M931.903,176.282c0,2.441-1.982,4.422-4.426,4.422c-2.444,0-4.426-1.98-4.426-4.422  c0-2.442,1.981-4.422,4.426-4.422C929.921,171.86,931.903,173.839,931.903,176.282"/>
<path fill="#343434" d="M922.76,147.901c0,2.442-1.98,4.422-4.425,4.422c-2.443,0-4.426-1.979-4.426-4.422  c0-2.441,1.982-4.422,4.426-4.422C920.779,143.479,922.76,145.459,922.76,147.901"/>
<path fill="#343434" d="M1131.516,247.92l-22.789-22.77c-9.148-9.14-19.818-16.219-31.715-21.039  c-11.485-4.654-23.619-7.014-36.064-7.014c-12.444,0-24.578,2.36-36.065,7.014c-11.896,4.821-22.566,11.899-31.711,21.039  l-3.922,3.917l-4.732-4.738l3.921-3.916c9.782-9.776,21.198-17.349,33.93-22.507c12.29-4.979,25.27-7.504,38.58-7.504  c13.312,0,26.291,2.524,38.58,7.504c12.73,5.158,24.147,12.731,33.932,22.508l22.789,22.77L1131.516,247.92z"/>
<path fill="#343434" d="M1180.503,315.832l-81.268-81.199c-32.141-32.113-84.435-32.111-116.575,0l-22.984,22.965l-4.732-4.737  l22.984-22.965c34.748-34.718,91.292-34.72,126.04,0l81.268,81.199L1180.503,315.832z"/>
<path fill="#343434" d="M925.981,310.229l-4.732-4.737l66.169-66.113c14.298-14.286,33.308-22.153,53.528-22.153  c20.223,0,39.233,7.868,53.53,22.153l45.721,45.684l-4.732,4.737l-45.722-45.684c-13.032-13.022-30.361-20.194-48.797-20.194  c-18.433,0-35.762,7.172-48.796,20.194L925.981,310.229z"/>
<path fill="#343434" d="M1137.831,252.056c0,2.443,1.982,4.422,4.426,4.422c2.444,0,4.426-1.979,4.426-4.422  c0-2.441-1.981-4.422-4.426-4.422C1139.813,247.634,1137.831,249.614,1137.831,252.056"/>
<path fill="#343434" d="M913.91,313.22c0,2.441,1.981,4.422,4.425,4.422c2.444,0,4.426-1.98,4.426-4.422  c0-2.443-1.981-4.422-4.426-4.422C915.892,308.798,913.91,310.776,913.91,313.22"/>
<path fill="#343434" d="M949.335,258.94c0,2.441,1.981,4.422,4.425,4.422c2.444,0,4.427-1.98,4.427-4.422s-1.982-4.422-4.427-4.422  C951.316,254.519,949.335,256.499,949.335,258.94"/>
<path fill="#343434" d="M958.478,232.517c0,2.441,1.981,4.422,4.426,4.422c2.443,0,4.425-1.98,4.425-4.422  c0-2.443-1.981-4.422-4.425-4.422C960.459,228.094,958.478,230.073,958.478,232.517"/>
<path fill="#343434" d="M1217.711,331.206c-13.476,0-26.95-5.125-37.209-15.374l4.732-4.737c17.908,17.892,47.044,17.892,64.95,0  l4.732,4.737C1244.66,326.081,1231.186,331.206,1217.711,331.206z"/>
<path fill="#343434" d="M251.593,89.334c-13.178,0-23.898-10.713-23.898-23.881s10.721-23.881,23.898-23.881  c13.179,0,23.9,10.713,23.9,23.881S264.771,89.334,251.593,89.334z M251.593,47.543c-9.885,0-17.926,8.034-17.926,17.91  s8.041,17.91,17.926,17.91c9.886,0,17.928-8.034,17.928-17.91S261.479,47.543,251.593,47.543z"/>
<path fill="#343434" d="M251.854,107.484c-23.194,0-42.064-18.855-42.064-42.031s18.87-42.031,42.064-42.031  c23.193,0,42.063,18.855,42.063,42.031S275.048,107.484,251.854,107.484z M251.854,30.583c-19.245,0-34.902,15.642-34.902,34.869  s15.657,34.869,34.902,34.869s34.901-15.642,34.901-34.869S271.1,30.583,251.854,30.583z"/>
<path fill="#343434" d="M260.845,145.533l-4.732-4.737l22.789-22.771c9.784-9.776,21.2-17.349,33.931-22.507  c12.29-4.979,25.27-7.504,38.58-7.504s26.291,2.524,38.58,7.504c12.73,5.158,24.146,12.73,33.931,22.507l3.921,3.916l-4.732,4.738  l-3.921-3.916c-9.147-9.141-19.817-16.219-31.713-21.039c-11.486-4.654-23.621-7.014-36.065-7.014s-24.578,2.36-36.065,7.014  c-11.896,4.82-22.565,11.898-31.713,21.038L260.845,145.533z"/>
<path fill="#343434" d="M211.856,213.445l-4.732-4.737l81.268-81.199c34.75-34.721,91.291-34.721,126.041,0l22.983,22.965  l-4.732,4.737L409.7,132.246c-32.14-32.112-84.435-32.113-116.576,0L211.856,213.445z"/>
<path fill="#343434" d="M466.378,207.843l-66.169-66.113c-13.034-13.022-30.363-20.194-48.797-20.194  c-18.433,0-35.762,7.172-48.796,20.194l-45.722,45.684l-4.732-4.737l45.722-45.684c14.298-14.286,33.308-22.153,53.528-22.153  s39.231,7.868,53.529,22.153l66.169,66.113L466.378,207.843z"/>
<path fill="#343434" d="M256.279,149.669c0,2.442-1.981,4.422-4.426,4.422c-2.443,0-4.426-1.979-4.426-4.422  c0-2.441,1.982-4.422,4.426-4.422C254.298,145.248,256.279,147.228,256.279,149.669"/>
<path fill="#343434" d="M480.201,212.788c0,2.442-1.982,4.422-4.426,4.422c-2.444,0-4.426-1.979-4.426-4.422  c0-2.441,1.981-4.422,4.426-4.422C478.219,208.366,480.201,210.346,480.201,212.788"/>
<path fill="#343434" d="M444.775,158.509c0,2.441-1.981,4.422-4.426,4.422c-2.443,0-4.426-1.98-4.426-4.422  c0-2.442,1.982-4.422,4.426-4.422C442.794,154.087,444.775,156.067,444.775,158.509"/>
<path fill="#343434" d="M435.633,130.128c0,2.442-1.98,4.422-4.426,4.422c-2.443,0-4.425-1.979-4.425-4.422  c0-2.441,1.981-4.421,4.425-4.421C433.652,125.708,435.633,127.687,435.633,130.128"/>
<path fill="#343434" d="M174.649,228.82c-13.477,0-26.948-5.124-37.207-15.375l4.732-4.737c17.908,17.893,47.044,17.891,64.95,0  l4.732,4.737C201.601,223.694,188.123,228.82,174.649,228.82z"/>
<path fill="#343434" d="M401.105,231.761l-40.109-40.075c-12.316-12.308-32.359-12.308-44.676,0l-22.928,22.91l-4.535-4.539  l22.928-22.91c14.818-14.806,38.928-14.806,53.746,0l40.109,40.074L401.105,231.761z"/>
<path fill="#343434" d="M325.508,240.19c-13.476,0-26.947-5.123-37.206-15.374l4.732-4.737c17.908,17.893,47.043,17.891,64.949,0  l4.732,4.737C352.459,235.064,338.981,240.19,325.508,240.19z"/>
<path fill="#343434" d="M211.856,213.445l-4.732-4.737c20.518-20.499,53.899-20.499,74.415,0l-4.732,4.737  C258.9,195.554,229.765,195.556,211.856,213.445z"/>
<path fill="#343434" d="M145.932,298.607v-6.696c25.323,0,45.925-20.583,45.925-45.883h6.697  C198.554,275.021,174.947,298.607,145.932,298.607z"/>
<path fill="#343434" d="M198.554,246.028h-6.697c0-28.993,23.606-52.58,52.622-52.58v6.696  C219.155,200.145,198.554,220.728,198.554,246.028z"/>
<path fill="#343434" d="M409.391,231.767c2.173,0,3.936,1.76,3.936,3.934c0,2.17-1.763,3.93-3.936,3.93s-3.936-1.76-3.936-3.93  C405.455,233.526,407.218,231.767,409.391,231.767"/>
<polygon fill="#343434" points="366.032,238.034 359.335,238.034 359.335,223.042 344.33,223.042 344.33,216.346 366.032,216.346   "/>
<polygon fill="#343434" points="728.04,329.05 721.343,329.05 721.343,314.059 706.337,314.059 706.337,307.362 728.04,307.362 "/>
<path fill="#343434" d="M1207.216,165.311c-7.157,0-13.887-2.785-18.948-7.842c-5.062-5.058-7.851-11.783-7.851-18.937  s2.788-13.878,7.851-18.937c5.062-5.057,11.791-7.842,18.948-7.842s13.887,2.785,18.948,7.842  c5.062,5.058,7.851,11.783,7.851,18.937s-2.788,13.878-7.851,18.937C1221.103,162.526,1214.373,165.311,1207.216,165.311z   M1207.216,118.45c-5.369,0-10.418,2.089-14.216,5.883c-3.796,3.793-5.887,8.836-5.887,14.199s2.091,10.406,5.887,14.199  c3.798,3.794,8.847,5.883,14.216,5.883c5.37,0,10.418-2.089,14.216-5.883c3.796-3.793,5.887-8.836,5.887-14.199  s-2.091-10.406-5.887-14.199C1217.634,120.539,1212.586,118.45,1207.216,118.45z"/>
<path fill="#343434" d="M1187.505,151.973c-1.729,1.728-1.729,4.526,0,6.253s4.529,1.727,6.258,0s1.729-4.525,0-6.253  C1192.034,150.247,1189.233,150.247,1187.505,151.973"/>
<path fill="#343434" d="M1220.668,158.226c1.729,1.728,4.53,1.728,6.258,0c1.729-1.727,1.729-4.525,0-6.252  c-1.728-1.728-4.528-1.728-6.258,0C1218.94,153.701,1218.94,156.5,1220.668,158.226"/>
<path fill="#343434" d="M1207.216,151.458c-3.454,0-6.702-1.344-9.145-3.785s-3.788-5.688-3.788-9.14s1.346-6.699,3.789-9.141  c2.441-2.441,5.688-3.786,9.144-3.786s6.702,1.345,9.145,3.787c2.443,2.44,3.79,5.687,3.79,9.14s-1.347,6.7-3.791,9.141  C1213.918,150.113,1210.67,151.458,1207.216,151.458z M1207.216,132.303c-1.666,0-3.232,0.648-4.41,1.825s-1.826,2.741-1.826,4.404  s0.648,3.227,1.825,4.403c1.179,1.177,2.744,1.826,4.411,1.826s3.232-0.648,4.41-1.825c1.179-1.177,1.828-2.741,1.828-4.404  s-0.649-3.227-1.827-4.403C1210.448,132.951,1208.882,132.303,1207.216,132.303z"/>
<path fill="#343434" d="M1207.216,243.095c-27.951,0-54.229-10.876-73.996-30.624c-19.735-19.719-30.604-45.977-30.604-73.938  s10.869-54.22,30.604-73.939c19.767-19.748,46.045-30.624,73.996-30.624s54.229,10.876,73.996,30.624  c19.736,19.719,30.604,45.978,30.604,73.938s-10.868,54.22-30.604,73.939C1261.448,232.219,1235.169,243.095,1207.216,243.095z   M1207.216,40.665c-26.163,0-50.762,10.18-69.264,28.665c-18.469,18.454-28.64,43.03-28.64,69.202  c0,26.171,10.171,50.748,28.64,69.201c18.502,18.485,43.101,28.665,69.264,28.665c26.165,0,50.764-10.18,69.264-28.665  c18.469-18.454,28.641-43.031,28.641-69.202c0-26.171-10.172-50.747-28.641-69.201C1257.978,50.845,1233.379,40.665,1207.216,40.665  z"/>
<path fill="#343434" d="M1207.216,230.169c-24.496,0-47.526-9.532-64.848-26.839c-17.297-17.281-26.822-40.294-26.822-64.798  s9.525-47.518,26.822-64.799c17.322-17.307,40.353-26.839,64.848-26.839c24.496,0,47.526,9.532,64.849,26.839  c17.297,17.282,26.822,40.295,26.822,64.799s-9.525,47.517-26.822,64.798C1254.744,220.637,1231.714,230.169,1207.216,230.169z   M1207.216,53.59c-22.708,0-44.057,8.836-60.115,24.88c-16.03,16.017-24.858,37.347-24.858,60.062  c0,22.714,8.828,44.045,24.858,60.061c16.058,16.044,37.406,24.88,60.115,24.88c22.71,0,44.06-8.836,60.116-24.88  c16.029-16.016,24.857-37.347,24.857-60.061c0-22.715-8.828-44.045-24.857-60.062C1251.273,62.426,1229.924,53.59,1207.216,53.59z"/>
<path fill="#343434" d="M1207.216,217.244c-21.039,0-40.821-8.187-55.701-23.053c-14.857-14.845-23.039-34.612-23.039-55.66  c0-21.048,8.182-40.814,23.039-55.658c14.88-14.866,34.662-23.053,55.701-23.053c21.04,0,40.822,8.187,55.702,23.053  c14.856,14.844,23.038,34.61,23.038,55.658c0,21.048-8.182,40.815-23.038,55.66C1248.038,209.057,1228.256,217.244,1207.216,217.244  z M1207.216,66.517c-19.252,0-37.353,7.491-50.969,21.094c-13.59,13.579-21.075,31.663-21.075,50.921  c0,19.258,7.485,37.343,21.075,50.923c13.616,13.603,31.717,21.094,50.969,21.094c19.253,0,37.354-7.491,50.97-21.094  c13.59-13.58,21.074-31.665,21.074-50.923c0-19.258-7.484-37.342-21.074-50.921C1244.569,74.008,1226.469,66.517,1207.216,66.517z"/>
<path fill="#343434" d="M1207.216,204.319c-17.586,0-34.119-6.843-46.554-19.268c-12.437-12.426-19.285-28.946-19.285-46.519  s6.849-34.093,19.285-46.52c12.435-12.425,28.968-19.268,46.554-19.268s34.119,6.843,46.554,19.268  c12.437,12.426,19.285,28.947,19.285,46.52s-6.849,34.093-19.285,46.519C1241.335,197.476,1224.802,204.319,1207.216,204.319z   M1207.216,79.442c-15.798,0-30.65,6.146-41.821,17.308c-11.17,11.161-17.321,26-17.321,41.782s6.151,30.621,17.321,41.781  c11.171,11.162,26.023,17.309,41.821,17.309s30.65-6.147,41.821-17.309c11.17-11.161,17.321-25.999,17.321-41.781  s-6.151-30.621-17.321-41.782C1237.866,85.588,1223.014,79.442,1207.216,79.442z"/>
<path fill="#343434" d="M1230.29,115.481c-7.62-7.617-18.507-10.975-29.123-8.987l-1.232-6.582  c12.785-2.396,25.904,1.654,35.09,10.833L1230.29,115.481z"/>
<path fill="#343434" d="M1170.964,153.793c-3-7.122-3.829-14.916-2.398-22.538l6.582,1.235c-1.188,6.328-0.501,12.795,1.988,18.703  L1170.964,153.793z"/>
<path fill="#343434" d="M1207.216,177.812c-10.071,0-20.142-3.83-27.808-11.49c-3.63-3.627-6.471-7.842-8.444-12.528l6.172-2.6  c1.636,3.883,3.992,7.379,7.006,10.391c12.723,12.713,33.426,12.712,46.15,0c8.014-8.008,11.271-19.386,8.713-30.434l6.523-1.511  c3.083,13.315-0.844,27.028-10.503,36.681C1227.357,173.981,1217.287,177.812,1207.216,177.812z"/>
<path fill="#343434" d="M1235.146,124.169c1.728,1.728,4.528,1.728,6.258,0c1.728-1.727,1.728-4.525,0-6.252  c-1.729-1.727-4.53-1.727-6.258,0C1233.417,119.644,1233.417,122.443,1235.146,124.169"/>
<path fill="#343434" d="M1222.194,188.946l-1.9-6.421c7.282-2.155,13.989-6.148,19.396-11.55  c8.673-8.666,13.449-20.188,13.449-32.443c0-12.255-4.776-23.776-13.449-32.442c-10.196-10.189-24.25-14.939-38.566-13.038  l-0.883-6.638c16.401-2.181,32.501,3.265,44.183,14.939c9.938,9.931,15.413,23.134,15.413,37.179s-5.475,27.249-15.414,37.181  C1238.229,181.9,1230.543,186.477,1222.194,188.946z"/>
<path fill="#343434" d="M954.604,177.12c-14.777,0-26.8-12.013-26.8-26.78c0-14.766,12.022-26.779,26.8-26.779  s26.8,12.013,26.8,26.779C981.404,165.107,969.382,177.12,954.604,177.12z M954.604,130.258c-11.085,0-20.103,9.009-20.103,20.083  c0,11.074,9.018,20.083,20.103,20.083s20.103-9.009,20.103-20.083C974.707,139.267,965.689,130.258,954.604,130.258z"/>
<path fill="#343434" d="M979.808,152.806c2.443,0,4.425-1.979,4.425-4.422c0-2.441-1.981-4.421-4.425-4.421  c-2.445,0-4.427,1.979-4.427,4.421C975.381,150.827,977.362,152.806,979.808,152.806"/>
<path fill="#343434" d="M960.782,124.955c0-2.442-1.982-4.422-4.426-4.422c-2.444,0-4.426,1.979-4.426,4.422  c0,2.441,1.981,4.422,4.426,4.422C958.8,129.376,960.782,127.396,960.782,124.955"/>
<path fill="#343434" d="M954.605,163.266c-7.133,0-12.936-5.798-12.936-12.925c0-7.126,5.803-12.924,12.936-12.924  c7.132,0,12.934,5.798,12.934,12.924C967.539,157.467,961.737,163.266,954.605,163.266z M954.605,144.112  c-3.44,0-6.238,2.794-6.238,6.228c0,3.435,2.798,6.229,6.238,6.229c3.438,0,6.236-2.794,6.236-6.229  C960.842,146.906,958.044,144.112,954.605,144.112z"/>
<path fill="#343434" d="M976.783,182.795l-3.779-5.528c5.318-3.635,9.41-8.694,11.834-14.632l6.199,2.53  C988.117,172.321,983.188,178.418,976.783,182.795z"/>
<path fill="#343434" d="M991.037,165.165l-6.199-2.53c1.592-3.9,2.398-8.037,2.398-12.294c0-17.976-14.638-32.601-32.631-32.601  c-11.337,0-21.693,5.744-27.703,15.364l-5.68-3.548c7.241-11.592,19.721-18.513,33.383-18.513c21.686,0,39.328,17.628,39.328,39.297  C993.934,155.47,992.959,160.458,991.037,165.165z"/>
<path fill="#343434" d="M721.582,105.492c-14.776,0-26.799-12.013-26.799-26.78c0-14.766,12.022-26.779,26.799-26.779  s26.799,12.013,26.799,26.779C748.381,93.479,736.358,105.492,721.582,105.492z M721.582,58.63  c-11.084,0-20.102,9.009-20.102,20.083c0,11.074,9.018,20.083,20.102,20.083s20.102-9.009,20.102-20.083  C741.684,67.639,732.666,58.63,721.582,58.63z"/>
<path fill="#343434" d="M727.759,53.327c0-2.442-1.981-4.422-4.426-4.422s-4.425,1.979-4.425,4.422c0,2.441,1.98,4.421,4.425,4.421  S727.759,55.768,727.759,53.327"/>
<path fill="#343434" d="M721.583,157.425c-43.437,0-78.775-35.31-78.775-78.712c0-21.027,8.194-40.794,23.074-55.659  C680.758,8.188,700.54,0.001,721.583,0c43.437,0.001,78.775,35.311,78.775,78.712c0,21.025-8.194,40.792-23.073,55.658  C762.405,149.237,742.623,157.425,721.583,157.425z M721.583,6.696c-19.255,0.001-37.356,7.493-50.969,21.095  c-13.612,13.6-21.109,31.684-21.109,50.921c0,39.71,32.334,72.016,72.078,72.016c19.252,0,37.354-7.492,50.97-21.096  c13.612-13.601,21.108-31.685,21.108-50.92C793.661,39.003,761.327,6.697,721.583,6.696z"/>
<path fill="#343434" d="M721.582,144.499c-36.304,0-65.839-29.512-65.839-65.787s29.535-65.787,65.839-65.787  s65.84,29.512,65.84,65.787S757.886,144.499,721.582,144.499z M721.582,19.622c-32.611,0-59.142,26.508-59.142,59.09  s26.53,59.09,59.142,59.09s59.143-26.508,59.143-59.09S754.193,19.622,721.582,19.622z"/>
<path fill="#343434" d="M721.584,118.011v-6.696c10.779,0,20.854-5.316,26.951-14.221l5.525,3.783  C746.716,111.605,734.574,118.011,721.584,118.011z"/>
<path fill="#343434" d="M735.153,45.409c6.578,2.68,12.184,7.247,16.144,13.031"/>
<path fill="#343434" d="M748.534,60.332c-3.638-5.313-8.701-9.401-14.644-11.822l2.525-6.202  c7.162,2.917,13.263,7.842,17.644,14.241L748.534,60.332z"/>
<path fill="#343434" d="M700.784,112.071c-11.603-7.236-18.53-19.707-18.53-33.358c0-21.669,17.644-39.297,39.329-39.297  c5.13,0,10.12,0.973,14.833,2.892l-2.525,6.202c-3.906-1.591-8.048-2.397-12.308-2.397c-17.993,0-32.632,14.625-32.632,32.601  c0,11.325,5.748,21.672,15.376,27.677L700.784,112.071z"/>
<path fill="#343434" d="M713.748,106.645c-2.444,0-4.425,1.98-4.425,4.422c0,2.442,1.98,4.422,4.425,4.422s4.426-1.979,4.426-4.422  C718.174,108.625,716.192,106.645,713.748,106.645"/>
<path fill="#343434" d="M721.582,131.292c-29.016,0-52.622-23.587-52.622-52.58s23.606-52.58,52.622-52.58  s52.622,23.587,52.622,52.58S750.598,131.292,721.582,131.292z M721.582,32.829c-25.323,0-45.925,20.583-45.925,45.883  s20.602,45.883,45.925,45.883s45.925-20.583,45.925-45.883S746.905,32.829,721.582,32.829z"/>
<path fill="#343434" d="M1216.438,316.808c-7.157,0-13.887-2.786-18.948-7.844c-5.063-5.059-7.852-11.783-7.852-18.936  c0-7.154,2.788-13.879,7.852-18.938c5.062-5.057,11.791-7.842,18.948-7.842c7.158,0,13.887,2.785,18.948,7.842  c5.062,5.059,7.85,11.783,7.85,18.938c0,7.152-2.788,13.877-7.851,18.936C1230.325,314.021,1223.596,316.808,1216.438,316.808z   M1216.438,269.944c-5.37,0-10.418,2.09-14.216,5.884c-3.797,3.794-5.888,8.837-5.888,14.2s2.091,10.405,5.888,14.198  c3.798,3.794,8.846,5.884,14.216,5.884s10.418-2.09,14.214-5.883c3.797-3.794,5.888-8.836,5.888-14.199s-2.091-10.406-5.887-14.2  C1226.855,272.034,1221.808,269.944,1216.438,269.944z"/>
<path fill="#343434" d="M1198.478,303.47c-1.729,1.727-1.729,4.525,0,6.252s4.529,1.727,6.258,0c1.728-1.727,1.728-4.525,0-6.252  C1203.007,301.741,1200.206,301.741,1198.478,303.47"/>
<path fill="#343434" d="M1229.89,309.722c1.729,1.727,4.529,1.727,6.259,0c1.728-1.727,1.728-4.525,0-6.252  c-1.729-1.727-4.53-1.727-6.259,0C1228.162,305.196,1228.162,307.995,1229.89,309.722"/>
<path fill="#343434" d="M1216.438,302.952c-3.455,0-6.702-1.344-9.145-3.784c-2.443-2.44-3.789-5.687-3.789-9.14  s1.346-6.7,3.789-9.142c2.442-2.44,5.689-3.786,9.145-3.786c3.454,0,6.701,1.346,9.145,3.787c2.442,2.441,3.788,5.688,3.788,9.141  s-1.346,6.699-3.789,9.14C1223.139,301.608,1219.892,302.952,1216.438,302.952z M1216.438,283.798c-1.667,0-3.233,0.648-4.411,1.826  c-1.178,1.176-1.826,2.74-1.826,4.404c0,1.662,0.648,3.227,1.825,4.402c1.179,1.178,2.745,1.826,4.412,1.826  c1.666,0,3.232-0.648,4.411-1.826c1.177-1.176,1.824-2.74,1.824-4.402c0-1.664-0.647-3.229-1.825-4.404  C1219.67,284.446,1218.104,283.798,1216.438,283.798z"/>
<path fill="#343434" d="M1239.511,266.976c-7.622-7.615-18.513-10.975-29.121-8.986l-1.234-6.582  c12.785-2.395,25.904,1.652,35.09,10.832L1239.511,266.976z"/>
<path fill="#343434" d="M1244.367,275.665c1.728,1.727,4.53,1.727,6.258,0c1.729-1.727,1.729-4.525,0-6.252  c-1.728-1.727-4.53-1.727-6.258,0S1242.64,273.938,1244.367,275.665"/>
<path fill="#343434" d="M599.881,282.71c-6.643,0.001-13.283-2.525-18.34-7.579c-4.899-4.895-7.599-11.403-7.599-18.327  s2.699-13.434,7.599-18.329l4.729,4.731c-3.636,3.633-5.638,8.461-5.638,13.598c0,5.136,2.002,9.964,5.637,13.596  c7.506,7.5,19.719,7.501,27.225,0c3.636-3.632,5.638-8.46,5.638-13.596c0-5.137-2.002-9.965-5.638-13.598l4.729-4.731  c4.899,4.896,7.599,11.405,7.599,18.329s-2.699,13.433-7.6,18.328C613.165,280.184,606.521,282.71,599.881,282.71z"/>
<rect x="609.048" y="226.615" transform="matrix(0.7069 0.7073 -0.7073 0.7069 352.3007 -361.5532)" fill="#343434" width="6.689" height="35.374"/>
<path fill="#343434" d="M652.037,232.325v-6.689c10.614,0,19.25-8.626,19.25-19.229s-8.636-19.229-19.25-19.229  s-19.249,8.626-19.249,19.229h-6.689c0-14.292,11.636-25.919,25.938-25.919s25.939,11.627,25.939,25.919  S666.34,232.325,652.037,232.325z"/>
<polygon fill="#343434" points="652.037,209.751 573.314,209.751 596.692,186.395 601.421,191.127 589.475,203.062 652.037,203.062   "/>
<path fill="#343434" d="M284.844,212.788c2.172,0,3.936,1.76,3.936,3.933c0,2.171-1.764,3.931-3.936,3.931  c-2.174,0-3.936-1.76-3.936-3.931C280.908,214.547,282.67,212.788,284.844,212.788"/>
<path fill="#343434" d="M1116.883,327.39l-40.108-40.074c-12.318-12.309-32.36-12.309-44.677,0l-22.928,22.908l-4.535-4.539  l22.928-22.908c14.818-14.807,38.929-14.807,53.747,0l40.108,40.074L1116.883,327.39z"/>
<path fill="#343434" d="M1040.994,335.819c-13.477,0-26.948-5.123-37.207-15.374l4.732-4.737c17.907,17.893,47.043,17.891,64.95,0  l4.732,4.737C1067.945,330.693,1054.468,335.819,1040.994,335.819z"/>
<path fill="#343434" d="M1048.503,177.814c-22.086,0-44.171-8.399-60.984-25.199l4.732-4.737c31.017,30.99,81.484,30.992,112.503,0  l4.732,4.737C1092.673,169.415,1070.588,177.814,1048.503,177.814z"/>
<path fill="#343434" d="M561.211,164.519c-35.492,0-70.973-13.494-97.992-40.49l4.732-4.737c51.424,51.378,135.094,51.381,186.52,0  l4.732,4.737C632.189,151.019,596.694,164.519,561.211,164.519z"/>
<path fill="#343434" d="M927.633,309.074l-4.732-4.737c20.518-20.497,53.9-20.498,74.416,0l-4.732,4.737  C974.677,291.183,945.54,291.185,927.633,309.074z"/>
<polygon fill="#343434" points="1081.519,333.663 1074.821,333.663 1074.821,318.671 1059.815,318.671 1059.815,311.975   1081.519,311.975 "/>
<path fill="#343434" d="M1000.329,308.417c2.173,0,3.936,1.76,3.936,3.932s-1.763,3.932-3.936,3.932s-3.936-1.76-3.936-3.932  S998.156,308.417,1000.329,308.417"/>
<path fill="#343434" d="M454.133,187.257c2.173,0,3.936,1.76,3.936,3.932s-1.763,3.932-3.936,3.932s-3.936-1.76-3.936-3.932  S451.96,187.257,454.133,187.257"/>
<rect x="1135.229" y="259.784" fill="#343434" width="54.998" height="6.696"/>
<rect x="1288.858" y="259.784" fill="#343434" width="345.852" height="6.696"/>
<rect x="886.693" y="259.784" fill="#343434" width="54.998" height="6.696"/>
<rect y="257.825" fill="#343434" width="194.298" height="6.696"/>
<path fill="#343434" d="M1069.642,69.295l-6.287-6.281c-8.255-8.249-21.688-8.251-29.944,0l-4.262,4.256l-4.732-4.738l4.261-4.256  c10.865-10.858,28.545-10.857,39.412,0l1.553,1.553l1.896-1.893c10.867-10.857,28.546-10.856,39.411,0l3.92,3.917l-4.732,4.737  l-3.921-3.917c-8.254-8.248-21.686-8.25-29.945,0L1069.642,69.295z"/>
<path fill="#343434" d="M134.56,138.572l-6.287-6.282c-8.256-8.25-21.69-8.25-29.944,0l-4.263,4.256l-4.732-4.738l4.262-4.256  c10.864-10.857,28.545-10.857,39.411,0l1.554,1.552l1.894-1.893c10.866-10.856,28.546-10.856,39.412,0l3.921,3.918l-4.732,4.737  l-3.921-3.918c-8.257-8.25-21.689-8.247-29.946,0L134.56,138.572z"/>
<path fill="#343434" d="M659.948,91.573c-2.286,0.866-3.437,3.418-2.571,5.702c0.867,2.283,3.421,3.433,5.707,2.568  c2.285-0.866,5.188-5.374,4.321-7.657C666.539,89.902,662.234,90.708,659.948,91.573"/>
<path fill="#343434" d="M1288.199,204.208l-4.736-4.734l105.644-105.666h27.512v9.208c0,1.068,0.871,1.938,1.941,1.938  c1.071,0,1.942-0.87,1.942-1.938v-5.859h6.697v5.859c0,4.761-3.876,8.634-8.64,8.634c-4.763,0-8.639-3.873-8.639-8.634v-2.511  h-18.041L1288.199,204.208z"/>
<path fill="#343434" d="M1450.74,84.39c-4.763,0-8.639-3.873-8.639-8.634v-5.859h6.697v5.859c0,1.068,0.871,1.938,1.941,1.938  c1.071,0,1.942-0.87,1.942-1.938v-5.859h6.697v5.859C1459.38,80.517,1455.504,84.39,1450.74,84.39z"/>
<path fill="#343434" d="M1472.341,84.39c-4.764,0-8.64-3.873-8.64-8.634v-5.859h6.697v5.859c0,1.068,0.871,1.938,1.942,1.938  c1.07,0,1.941-0.87,1.941-1.938v-5.859h6.697v5.859C1480.979,80.517,1477.104,84.39,1472.341,84.39z"/>
<path fill="#343434" d="M1526.12,111.649c-4.763,0-8.639-3.873-8.639-8.634v-5.859h6.697v5.859c0,1.068,0.871,1.938,1.941,1.938  c1.071,0,1.942-0.87,1.942-1.938v-5.859h6.697v5.859C1534.76,107.776,1530.884,111.649,1526.12,111.649z"/>
<path fill="#343434" d="M1547.721,111.649c-4.763,0-8.639-3.873-8.639-8.634v-5.859h6.697v5.859c0,1.068,0.871,1.938,1.941,1.938  s1.941-0.87,1.941-1.938v-5.859h6.697v5.859C1556.359,107.776,1552.483,111.649,1547.721,111.649z"/>
<path fill="#343434" d="M1569.32,111.649c-4.763,0-8.639-3.873-8.639-8.634v-5.859h6.697v5.859c0,1.068,0.871,1.938,1.941,1.938  c1.071,0,1.942-0.87,1.942-1.938v-5.859h6.697v5.859C1577.96,107.776,1574.084,111.649,1569.32,111.649z"/>
<path fill="#343434" d="M1590.92,111.649c-4.764,0-8.64-3.873-8.64-8.634v-5.859h6.697v5.859c0,1.068,0.871,1.938,1.942,1.938  c1.07,0,1.941-0.87,1.941-1.938v-5.859h6.697v5.859C1599.559,107.776,1595.683,111.649,1590.92,111.649z"/>
<path fill="#343434" d="M1504.521,111.649c-4.763,0-8.639-3.873-8.639-8.634v-5.859h6.697v5.859c0,1.068,0.871,1.938,1.941,1.938  c1.071,0,1.942-0.87,1.942-1.938v-5.859h6.697v5.859C1513.16,107.776,1509.284,111.649,1504.521,111.649z"/>
<path fill="#343434" d="M1493.94,152.348c-4.763,0-8.639-3.873-8.639-8.634V69.896h6.697v73.817c0,1.068,0.871,1.938,1.941,1.938  c1.071,0,1.942-0.87,1.942-1.938V69.896h6.697v73.817C1502.58,148.475,1498.704,152.348,1493.94,152.348z"/>
<rect x="1431.082" y="69.896" fill="#343434" width="6.697" height="60.93"/>
<path fill="#343434" d="M1612.52,84.39c-4.763,0-8.639-3.873-8.639-8.634v-5.859h6.697v5.859c0,1.068,0.871,1.938,1.941,1.938  s1.941-0.87,1.941-1.938v-5.859h6.697v5.859C1621.158,80.517,1617.282,84.39,1612.52,84.39z"/>
<path fill="#343434" d="M1634.119,84.39c-4.763,0-8.639-3.873-8.639-8.634v-5.859h6.697v5.859c0,1.068,0.871,1.938,1.941,1.938  c1.071,0,1.942-0.87,1.942-1.938v-5.859h6.697v5.859C1642.759,80.517,1638.883,84.39,1634.119,84.39z"/>
<rect x="1592.861" y="69.896" fill="#343434" width="6.697" height="60.93"/>
<path fill="#343434" d="M1339.128,229.646c-7.157,0-13.887-2.785-18.948-7.842c-5.062-5.059-7.851-11.784-7.851-18.937  c0-7.153,2.788-13.878,7.851-18.936c5.062-5.058,11.791-7.843,18.948-7.843c7.158,0,13.888,2.786,18.949,7.844  c5.062,5.058,7.85,11.783,7.85,18.936c0,7.153-2.788,13.878-7.851,18.937C1353.016,226.861,1346.286,229.646,1339.128,229.646z   M1339.128,182.784c-5.37,0-10.418,2.089-14.216,5.884c-3.796,3.793-5.887,8.835-5.887,14.199s2.091,10.406,5.887,14.2  c3.798,3.794,8.846,5.883,14.216,5.883s10.419-2.089,14.216-5.883c3.796-3.793,5.887-8.836,5.887-14.2s-2.091-10.406-5.887-14.199  C1349.547,184.874,1344.498,182.784,1339.128,182.784z"/>
<path fill="#343434" d="M1319.417,216.308c-1.728,1.727-1.728,4.525,0,6.253c1.729,1.727,4.529,1.727,6.258,0  c1.729-1.728,1.729-4.526,0-6.253S1321.146,214.582,1319.417,216.308"/>
<path fill="#343434" d="M1339.128,215.792c-3.454,0-6.702-1.344-9.144-3.784c-2.443-2.441-3.789-5.688-3.789-9.141  s1.346-6.699,3.789-9.14c2.441-2.441,5.688-3.786,9.144-3.786c3.454,0,6.701,1.345,9.145,3.786c2.442,2.44,3.788,5.687,3.788,9.14  s-1.346,6.7-3.789,9.141C1345.829,214.448,1342.582,215.792,1339.128,215.792z M1339.128,196.638c-1.666,0-3.232,0.648-4.41,1.825  c-1.178,1.177-1.826,2.741-1.826,4.404c0,1.664,0.648,3.228,1.825,4.404c1.178,1.177,2.744,1.825,4.411,1.825  c1.666,0,3.232-0.648,4.411-1.825c1.177-1.176,1.825-2.74,1.825-4.404c0-1.663-0.648-3.227-1.825-4.403  C1342.36,197.286,1340.794,196.638,1339.128,196.638z"/>
<path fill="#343434" d="M1362.202,179.815c-7.621-7.616-18.508-10.978-29.122-8.986l-1.234-6.582  c12.793-2.396,25.905,1.653,35.091,10.832L1362.202,179.815z"/>
<path fill="#343434" d="M1302.877,218.128c-3-7.122-3.829-14.916-2.398-22.538l6.582,1.235c-1.188,6.327-0.501,12.794,1.988,18.703  L1302.877,218.128z"/>
<path fill="#343434" d="M1339.128,242.146c-10.072,0.002-20.141-3.828-27.808-11.49c-3.629-3.625-6.47-7.839-8.444-12.528  l6.172-2.599c1.636,3.885,3.993,7.381,7.005,10.389c12.726,12.716,33.428,12.714,46.151,0c8.014-8.008,11.271-19.385,8.713-30.433  l6.523-1.511c3.083,13.315-0.843,27.027-10.504,36.681C1359.271,238.315,1349.197,242.146,1339.128,242.146z"/>
<path fill="#343434" d="M1367.058,188.504c1.729,1.728,4.53,1.728,6.259,0c1.728-1.727,1.728-4.525,0-6.253  c-1.729-1.727-4.53-1.727-6.259,0C1365.33,183.979,1365.33,186.778,1367.058,188.504"/>
<path fill="#343434" d="M1354.107,253.281l-1.9-6.421c7.284-2.155,13.991-6.149,19.396-11.551  c8.674-8.666,13.45-20.188,13.45-32.442c0-12.255-4.776-23.777-13.449-32.443c-10.197-10.189-24.257-14.939-38.567-13.038  l-0.883-6.638c16.393-2.181,32.5,3.265,44.183,14.938c9.939,9.932,15.414,23.136,15.414,37.181s-5.475,27.249-15.414,37.18  C1370.145,246.234,1362.458,250.812,1354.107,253.281z"/>
<polygon fill="#343434" points="197.734,289.679 193.234,285.175 213.563,264.862 233.891,285.175 229.391,289.679 213.563,273.862   "/>
<polygon fill="#343434" points="197.734,308.618 193.234,304.114 213.563,283.802 233.891,304.114 229.391,308.618 213.563,292.802   "/>
<polygon fill="#343434" points="278.619,289.679 274.119,285.175 294.448,264.862 314.775,285.175 310.275,289.679 294.448,273.862   "/>
<polygon fill="#343434" points="278.619,308.618 274.119,304.114 294.448,283.802 314.775,304.114 310.275,308.618 294.448,292.802   "/>
<polygon fill="#343434" points="270,259.96 254.172,244.144 238.344,259.96 233.844,255.456 254.172,235.144 274.5,255.456 "/>
<polygon fill="#343434" points="270,278.899 254.172,263.083 238.344,278.899 233.844,274.396 254.172,254.083 274.5,274.396 "/>
<polygon fill="#343434" points="270,316.778 254.172,300.962 238.344,316.778 233.844,312.274 254.172,291.962 274.5,312.274 "/>
<path fill="#343434" d="M1515.019,224.615h-6.367v-6.29h6.367V224.615z M1515.019,212.035h-6.367v-6.29h6.367V212.035z   M1515.019,199.456h-6.367v-6.29h6.367V199.456z M1515.019,186.876h-6.367v-6.29h6.367V186.876z M1515.019,174.296h-6.367v-6.29  h6.367V174.296z"/>
<path fill="#343434" d="M1529.72,224.615h-6.367v-6.29h6.367V224.615z M1529.72,212.035h-6.367v-6.29h6.367V212.035z   M1529.72,199.456h-6.367v-6.29h6.367V199.456z M1529.72,186.876h-6.367v-6.29h6.367V186.876z M1529.72,174.296h-6.367v-6.29h6.367  V174.296z"/>
<path fill="#343434" d="M1544.42,224.615h-6.367v-6.29h6.367V224.615z M1544.42,212.035h-6.367v-6.29h6.367V212.035z   M1544.42,199.456h-6.367v-6.29h6.367V199.456z M1544.42,186.876h-6.367v-6.29h6.367V186.876z M1544.42,174.296h-6.367v-6.29h6.367  V174.296z"/>
<path fill="#343434" d="M819.669,332.233h-20.795v-92.516h20.795V332.233z M805.241,325.867h8.061v-79.783h-8.061V325.867z"/>
<path fill="#343434" d="M791.116,332.233h-20.795v-92.516h20.795V332.233z M776.688,325.867h8.061v-79.783h-8.061V325.867z"/>
<path fill="#343434" d="M762.008,293.324h-20.795v-53.606h20.795V293.324z M747.58,286.958h8.061v-40.874h-8.061V286.958z"/>
<path fill="#343434" d="M733.454,293.324h-20.796v-53.606h20.796V293.324z M719.025,286.958h8.062v-40.874h-8.062V286.958z"/>
<polygon fill="#343434" points="809.489,94.792 804.989,90.288 825.318,69.976 845.646,90.288 841.146,94.792 825.318,78.976 "/>
<polygon fill="#343434" points="890.374,94.792 885.874,90.288 906.203,69.976 926.53,90.288 922.03,94.792 906.203,78.976 "/>
<polygon fill="#343434" points="922.03,113.731 906.201,97.916 890.374,113.731 885.874,109.227 906.201,88.916 926.53,109.227 "/>
<polygon fill="#343434" points="850.097,65.073 845.597,60.569 865.926,40.257 886.253,60.569 881.753,65.073 865.926,49.257 "/>
<polygon fill="#343434" points="850.097,102.952 845.597,98.448 865.926,78.136 886.253,98.448 881.753,102.952 865.926,87.136 "/>
<polygon fill="#343434" points="850.097,84.012 845.597,79.508 865.926,59.197 886.253,79.508 881.753,84.012 865.926,68.197 "/>
<polygon fill="#343434" points="479.373,289.679 463.545,273.862 447.717,289.679 443.217,285.175 463.545,264.862 483.873,285.175   "/>
<polygon fill="#343434" points="479.373,308.618 463.545,292.802 447.717,308.618 443.217,304.114 463.545,283.802 483.873,304.114   "/>
<polygon fill="#343434" points="488.324,259.96 483.824,255.456 504.153,235.144 524.48,255.456 519.98,259.96 504.153,244.144 "/>
<polygon fill="#343434" points="488.324,278.899 483.824,274.396 504.153,254.083 524.48,274.396 519.98,278.899 504.153,263.083   "/>
<polygon fill="#343434" points="488.324,316.778 483.824,312.274 504.153,291.962 524.48,312.274 519.98,316.778 504.153,300.962   "/>
<polygon fill="#343434" points="1418.138,192.66 1413.638,188.156 1433.967,167.844 1454.294,188.156 1449.794,192.66   1433.967,176.844 "/>
<polygon fill="#343434" points="1450.876,236.572 1412.705,236.572 1412.705,208.028 1433.966,186.784 1454.295,207.095   1449.795,211.599 1433.966,195.784 1419.072,210.667 1419.072,230.206 1450.876,230.206 "/>
<polygon fill="#343434" points="1495.836,226.969 1467.183,226.969 1467.183,220.603 1489.469,220.603 1489.469,199.887   1474.575,185.004 1458.746,200.82 1454.246,196.316 1474.575,176.004 1495.836,197.249 "/>
<path fill="#343434" d="M1458.636,219.854c2.174,0,3.937,1.76,3.937,3.933c0,2.171-1.763,3.931-3.937,3.931  c-2.173,0-3.934-1.76-3.934-3.931C1454.702,221.614,1456.463,219.854,1458.636,219.854"/>
<polygon fill="#343434" points="1597.565,226.969 1566.073,226.969 1566.073,220.603 1591.198,220.603 1591.198,199.887   1576.303,185.005 1561.409,199.887 1561.409,215.111 1555.042,215.111 1555.042,197.249 1576.303,176.005 1597.565,197.249 "/>
<path fill="#343434" d="M1558.226,219.854c2.172,0,3.934,1.76,3.934,3.933c0,2.171-1.762,3.931-3.934,3.931  c-2.174,0-3.937-1.76-3.937-3.931C1554.289,221.614,1556.052,219.854,1558.226,219.854"/>
<polygon fill="#343434" points="1418.138,192.66 1413.638,188.156 1433.967,167.844 1454.294,188.156 1449.794,192.66   1433.967,176.844 "/>
<polygon fill="#343434" points="1592.132,183.605 1576.304,167.789 1560.476,183.605 1555.976,179.101 1576.304,158.789   1596.632,179.101 "/>
<polygon fill="#343434" points="1601.982,174.261 1597.482,169.757 1617.812,149.446 1638.139,169.757 1633.639,174.261   1617.812,158.446 "/>
<path fill="#343434" d="M850.105,303.383h-20.795v-20.782h20.795V303.383z M835.678,297.017h8.061v-8.05h-8.061V297.017z"/>
<path fill="#343434" d="M850.105,332.233h-20.795v-20.782h20.795V332.233z M835.678,325.867h8.061v-8.05h-8.061V325.867z"/>
<path fill="#343434" d="M879.034,303.383h-20.796v-20.782h20.796V303.383z M864.605,297.017h8.062v-8.05h-8.062V297.017z"/>
<path fill="#343434" d="M879.034,332.233h-20.796v-20.782h20.796V332.233z M864.605,325.867h8.062v-8.05h-8.062V325.867z"/>
</svg>