<?xml version="1.0" encoding="UTF-8" standalone="no"?>
<!-- Created with Inkscape (http://www.inkscape.org/) -->

<svg
   version="1.1"
   id="svg1"
   width="330.02151"
   height="459.38651"
   viewBox="0 0 330.02151 459.38651"
   sodipodi:docname="mapDot.svg"
   inkscape:version="1.3 (0e150ed6c4, 2023-07-21)"
   inkscape:export-xdpi="499"
   inkscape:export-ydpi="499"
   ><defs
     id="defs1"><clipPath
       clipPathUnits="userSpaceOnUse"
       id="clipPath2"><rect
         style="fill:none;fill-opacity:1;stroke:#000000;stroke-width:1.88976;stroke-linejoin:round;stroke-dasharray:none;stroke-opacity:1"
         id="rect3"
         width="418.48523"
         height="430"
         x="-55.198975"
         y="200" /></clipPath></defs><path
       style="display:inline;fill:#e0e0e0;fill-opacity:1;stroke:#79c000;stroke-width:18.7654;stroke-dasharray:none;stroke-opacity:1"
       d="m 150.64877,9.8461145 c 57.16501,-4.258271 111.80887,20.7649535 143.44461,69.5189515 12.7641,19.67082 22.23978,42.693894 25.06946,65.999984 1.34592,11.08539 1.94787,21.74182 1.0531,33 -1.7515,22.03766 -9.10877,42.82477 -18.33856,63 -14.32541,31.31363 -32.31354,60.48767 -51.56003,89 -18.047,26.73535 -37.56418,52.55286 -57.38361,77.99997 -6.85646,8.80334 -27.29104,35.89627 -27.29104,35.89627 0,0 -21.06879,-25.43823 -27.71569,-33.89642 -21.15264,-26.91672 -41.528643,-54.50803 -60.495103,-82.99982 -26.462,-39.75177 -58.07102,-85.91321 -66.12871,-134 -1.3324596,-7.95187 -1.8654696,-15.94962 -1.9170296,-24 -0.0518,-8.09448 0.484,-15.95865 1.2292996,-24 C 17.147547,74.88771 81.088477,15.027725 150.64877,9.8461145"
       id="path1"
       sodipodi:nodetypes="csssssscsssssc"
       sodipodi:insensitive="true" /><path
       style="display:inline;fill:#79c000;fill-opacity:1;stroke:#79c000;stroke-width:18.7654;stroke-dasharray:none;stroke-opacity:1"
       d="m 150.64877,9.8461145 c 57.16501,-4.258271 111.80887,20.7649535 143.44461,69.5189515 12.7641,19.67082 22.23978,42.693894 25.06946,65.999984 1.34592,11.08539 1.94787,21.74182 1.0531,33 -1.7515,22.03766 -9.10877,42.82477 -18.33856,63 -14.32541,31.31363 -32.31354,60.48767 -51.56003,89 -18.047,26.73535 -37.56418,52.55286 -57.38361,77.99997 -6.85646,8.80334 -27.29104,35.89627 -27.29104,35.89627 0,0 -21.06879,-25.43823 -27.71569,-33.89642 -21.15264,-26.91672 -41.528643,-54.50803 -60.495103,-82.99982 -26.462,-39.75177 -58.07102,-85.91321 -66.12871,-134 -1.3324596,-7.95187 -1.8654696,-15.94962 -1.9170296,-24 -0.0518,-8.09448 0.484,-15.95865 1.2292996,-24 C 17.147547,74.88771 81.088477,15.027725 150.64877,9.8461145"
       id="path2"
       sodipodi:nodetypes="csssssscsssssc"
       clip-path="url(#clipPath2)" /><text
       style="font-size:192px;line-height:1.25;font-family:Arial;-inkscape-font-specification:Arial;text-align:center;word-spacing:0px;text-anchor:middle;fill:#ffffff;stroke:#000000"
       x="158.77638"
       y="247.82812"
       id="text3"><tspan
         sodipodi:role="line"
         id="tspan3"
         x="158.77638"
         y="247.82812">18</tspan></text>
         </svg>
